PathFileType	4	(X/Y/Z)	H:\MAC\Pilotos\Biomecanica2_gait_2020\Trimmed_walk3.trc
DataRate	CameraRate	NumFrames	NumMarkers	Units	OrigDataRate	OrigDataStartFrame	OrigNumFrames
150.00	150.00	       5	28	mm	150.00	220	       251
Frame#	Time	R.ASIS			L.ASIS			R.PSIS			L.PSIS			L.Iliac.Crest			R.Iliac.Crest			R.GTR			R.Knee			R.HF			R.TT			R.Ankle			R.Heel			R.MT1			R.MT5			L.GTR			L.Knee			L.HF			L.TT			L.Ankle			L.Heel			L.MT1			L.MT5			R.Knee.Medial			R.Ankle.Medial			R.MT2			L.Knee.Medial			L.Ankle.Medial			L.MT2			V_Mid_ASIS			V_Mid_PSIS			V_Pelvis_Origin			V_R.Hip_JC			V_R.Knee_JC_Static			V_R.TT			V_R.Ankle_JC_Static			V_L.Hip_JC			V_Mid_Hip			V_R.MT2_Static			V_R.Knee.Medial			V_R.Ankle.Medial			V_R.TT			V_L.Knee_JC_Static			V_L.TT			V_L.Ankle_JC_Static			V_L.MT2_Static			V_R.Knee_JC			V_R.Ankle_JC			V_L.Knee_JC			V_L.Ankle_JC			V_R.TT_KJC_Static			V_L.TT_KJC_Static			V_R.TT_KJC			V_L.TT_KJC			V_R.MT2			V_L.MT2			
		X1	Y1	Z1	X2	Y2	Z2	X3	Y3	Z3	X4	Y4	Z4	X5	Y5	Z5	X6	Y6	Z6	X7	Y7	Z7	X8	Y8	Z8	X9	Y9	Z9	X10	Y10	Z10	X11	Y11	Z11	X12	Y12	Z12	X13	Y13	Z13	X14	Y14	Z14	X15	Y15	Z15	X16	Y16	Z16	X17	Y17	Z17	X18	Y18	Z18	X19	Y19	Z19	X20	Y20	Z20	X21	Y21	Z21	X22	Y22	Z22	X23	Y23	Z23	X24	Y24	Z24	X25	Y25	Z25	X26	Y26	Z26	X27	Y27	Z27	X28	Y28	Z28	X29	Y29	Z29	X30	Y30	Z30	X31	Y31	Z31	X32	Y32	Z32	X33	Y33	Z33	X34	Y34	Z34	X35	Y35	Z35	X36	Y36	Z36	X37	Y37	Z37	X38	Y38	Z38	X39	Y39	Z39	X40	Y40	Z40	X41	Y41	Z41	X42	Y42	Z42	X43	Y43	Z43	X44	Y44	Z44	X45	Y45	Z45	X46	Y46	Z46	X47	Y47	Z47	X48	Y48	Z48	X49	Y49	Z49	X50	Y50	Z50	X51	Y51	Z51	X52	Y52	Z52	X53	Y53	Z53	X54	Y54	Z54	X55	Y55	Z55	

220	1.460	1741.45483	966.15973	-156.85046	1746.03064	968.41669	-413.61511	1541.00488	964.28735	-264.72974	1540.92407	959.25891	-347.02344	1662.89697	1018.35657	-464.52939	1662.37805	1023.24811	-122.74028	1647.65430	870.62640	-104.24834	1575.56018	500.51883	-165.44128	1563.82556	441.86371	-169.71495	1620.92334	420.08527	-212.54787	1470.54907	88.84953	-234.29997	1421.89661	66.89751	-289.73019	1625.49500	46.21046	-284.41571	1585.00891	29.64386	-204.80399	1680.42822	871.69690	-484.31085	1780.15784	492.63379	-468.99673	1785.87317	439.67731	-473.72897	1856.63110	429.73138	-431.16171	1775.35083	83.42652	-427.78156	1739.92236	42.47284	-370.11411	1935.47217	61.88728	-428.52103	1897.52930	48.84581	-462.37653	1599.91492	492.08279	-300.45374	1505.74500	117.07012	-315.19864	1619.85803	39.60485	-248.51714	1810.48340	487.78503	-335.42450	1813.33984	101.22061	-348.90262	1942.54907	63.36920	-394.79666																																																																																		
221	1.467	1748.72046	965.22369	-156.80855	1755.58960	967.43561	-413.86554	1549.06226	964.08197	-265.88937	1549.40356	958.97583	-348.14401	1671.98291	1017.38641	-465.03693	1669.58606	1022.64069	-123.15089	1653.70203	870.38068	-104.38512	1578.87732	500.89999	-165.82074	1566.63086	442.31833	-170.07072	1623.94556	419.95752	-212.50215	1470.62878	89.65839	-235.00099	1422.45142	68.13167	-290.16006	1625.75720	46.18845	-284.30981	1584.87585	29.72610	-204.95767	1688.41882	870.30804	-483.95493	1786.80823	490.36636	-467.36142	1794.58398	437.68594	-472.31995	1865.53296	429.43002	-430.08151	1799.81140	80.58083	-428.50702	1765.77893	38.36500	-371.10391	1960.94617	64.82786	-428.01636	1923.65759	50.80622	-462.16934	1603.83728	492.19281	-300.75162	1506.60156	117.89838	-315.55228	1619.87354	39.59381	-248.48955	1817.40430	485.58725	-333.44238	1836.75488	99.78923	-349.34741	1967.62439	66.73003	-394.30698																																																																																		
222	1.473	1756.02148	964.22052	-156.75085	1763.56482	966.04651	-413.49258	1557.26575	963.69403	-266.98077	1557.99500	958.50403	-349.25995	1681.24072	1016.27087	-465.59033	1677.05493	1021.91772	-123.61187	1660.22913	870.03192	-104.90134	1582.18555	501.35999	-166.08020	1569.57898	442.76981	-170.39914	1627.08167	419.75577	-212.55096	1470.94690	90.70284	-235.44270	1422.70142	69.74915	-290.88275	1625.91528	46.12265	-284.25610	1584.73096	29.78984	-205.10210	1697.85315	869.15771	-484.52667	1793.38745	488.12204	-465.65588	1803.24756	435.65579	-470.85895	1874.39856	429.15842	-428.79526	1823.81116	78.47613	-428.94788	1791.19397	35.03899	-371.96118	1985.62964	68.82970	-427.74811	1948.95471	53.62032	-462.11014	1607.88794	492.30215	-301.02054	1507.46106	118.68033	-315.85904	1619.91675	39.57651	-248.49472	1824.20508	483.40729	-331.37836	1859.62329	99.05703	-349.65567	1991.96472	70.95876	-394.04660																																																																																		
223	1.480	1763.39417	963.11578	-156.78778	1772.30676	964.69092	-413.37924	1565.49255	963.32739	-268.14856	1566.61804	957.97882	-350.32239	1690.32434	1015.12866	-466.10138	1684.64990	1021.13654	-124.20080	1666.66895	869.61987	-105.21439	1585.90271	501.56921	-166.50676	1572.67163	443.15216	-170.70856	1630.36438	419.51132	-212.58322	1471.36633	91.79430	-235.81410	1423.14966	71.24525	-291.42014	1626.05493	46.06173	-284.21945	1584.57190	29.85557	-205.24158	1706.57739	867.66608	-484.65411	1800.04346	485.86163	-463.97137	1811.88721	433.65036	-469.41000	1883.15405	428.98761	-427.45139	1846.96948	77.34915	-429.45657	1816.00281	32.39803	-372.60062	2009.33264	73.66926	-427.65240	1973.67175	57.54263	-461.57715	1612.05127	492.41104	-301.38742	1508.30334	119.48021	-316.17151	1619.91309	39.52782	-248.47285	1830.87891	481.35449	-329.22922	1881.91504	98.94711	-349.79810	2015.51672	75.93288	-393.96292																																																																																		
224	1.487	1770.77161	961.99048	-156.86256	1781.21814	963.32941	-413.37354	1573.72253	962.80676	-269.33197	1575.30200	957.35980	-351.47946	1699.48206	1013.89136	-466.61996	1692.24841	1020.25525	-124.74754	1673.24036	869.07874	-105.69934	1589.71033	501.80927	-166.84859	1575.99512	443.45712	-171.02766	1633.62622	419.63242	-212.22047	1471.73242	92.86400	-236.15063	1423.56860	72.67590	-291.86041	1626.11877	45.96112	-284.25275	1584.44202	29.90624	-205.36949	1715.46643	866.05707	-484.83493	1806.74426	483.65100	-462.27856	1820.47278	431.73663	-467.90265	1891.88000	429.06540	-425.98807	1869.36682	76.85275	-429.58813	1840.02258	30.45545	-372.97815	2032.13391	79.13196	-427.67706	1996.70959	60.62759	-461.63568	1616.36951	492.42838	-301.74048	1509.20459	120.21674	-316.41379	1619.92590	39.50667	-248.43037	1837.85059	479.35172	-326.99133	1903.49255	99.32926	-349.84476	2037.92712	81.68985	-394.05203																																																																																		
